Coordinates
version=1
nRows=14
nColumns=24
inDegrees=yes

Units are S.I. units (second, meters, Newtons, ...)
Angles are in degrees.

endheader
time	pelvis_tilt	pelvis_list	pelvis_rotation	pelvis_tx	pelvis_ty	pelvis_tz	hip_flexion_r	hip_adduction_r	hip_rotation_r	knee_angle_r	ankle_angle_r	subtalar_angle_r	mtp_angle_r	hip_flexion_l	hip_adduction_l	hip_rotation_l	knee_angle_l	ankle_angle_l	subtalar_angle_l	mtp_angle_l	lumbar_extension	lumbar_bending	lumbar_rotation
      1.12083333	     -0.09773202	     -9.72667370	     -7.77480840	     -0.15077886	      0.99484300	      0.30766344	    -14.93829247	      8.84840668	     -2.55214192	     -7.44122560	      6.43673178	     -0.73220463	      1.76445806	     22.34955987	    -12.97504424	    -15.42289823	      2.14634310	      1.55948104	     -4.59550534	     -6.48268038	    -12.36278710	     11.16356552	     10.50027844
      1.12500000	      0.04550520	     -9.59526238	     -8.02934510	     -0.14507192	      0.99474522	      0.30796839	    -15.28836988	      8.53736549	     -2.31907132	     -7.70710514	      6.37939370	     -0.62755735	      2.03180501	     22.11592998	    -12.91715537	    -15.40982140	      1.69638513	      1.44308276	     -4.86243586	     -6.36605929	    -12.54765278	     10.85719300	     10.82113870
      1.12916667	      0.27046021	     -9.48122836	     -8.29305817	     -0.13935628	      0.99482473	      0.30832526	    -15.73012641	      8.22744027	     -2.03244747	     -7.95950845	      6.32268194	     -0.52814268	      2.96942361	     21.79489226	    -12.88197026	    -15.48933740	      1.18684952	      1.35186301	     -5.03174038	     -5.92111567	    -12.81871696	     10.55110042	     11.12855117
      1.13333333	      0.23287054	     -9.33608692	     -8.55420173	     -0.13351386	      0.99452362	      0.30862255	    -15.86282387	      7.92792478	     -1.79735545	     -8.26920696	      6.20816490	     -0.44720383	      3.07734183	     21.76098275	    -12.82222143	    -15.40397929	      0.66308953	      1.15510644	     -5.43644930	     -5.87177212	    -12.74739492	     10.26401998	     11.27232321
      1.13750000	      0.31827537	     -9.20196094	     -8.79035282	     -0.12772266	      0.99444507	      0.30884522	    -16.10646063	      7.61619822	     -1.60384470	     -8.60510956	      6.14094413	     -0.32353548	      3.27049034	     21.59081724	    -12.74879542	    -15.34558336	      0.14693706	      0.81100941	     -5.89629843	     -5.77960782	    -12.82100849	      9.96832587	     11.62636357
      1.14166667	      0.51838198	     -9.04694319	     -9.01310318	     -0.12190657	      0.99459249	      0.30901395	    -16.45810747	      7.25456268	     -1.44470564	     -8.93963037	      5.96801856	     -0.16064951	      3.72678410	     21.27610831	    -12.63088843	    -15.32324086	     -0.35064202	      0.51119510	     -6.28993094	     -5.54213447	    -13.04277867	      9.62160961	     11.99917705
      1.14583333	      0.50635582	     -8.90550394	     -9.27886764	     -0.11605996	      0.99446865	      0.30926778	    -16.55589802	      6.94407112	     -1.21534042	     -9.34288529	      5.78935902	     -0.08586372	      3.85437517	     21.20038925	    -12.56947247	    -15.31867357	     -0.88370446	      0.11716842	     -6.67118865	     -5.48083656	    -13.00728329	      9.34023331	     12.06503286
      1.15000000	      0.67142772	     -8.74936282	     -9.49769308	     -0.11019449	      0.99465830	      0.30940757	    -16.83322983	      6.58627317	     -1.06828126	     -9.72458788	      5.52031586	     -0.08817897	      9.66282972	     20.91093949	    -12.44487426	    -15.32015311	     -1.35451181	     -0.38573404	     -7.17104431	     -2.30595350	    -13.16847985	      8.99787521	     12.44409304
      1.15416667	      0.68349890	     -8.58233502	     -9.70228747	     -0.10428917	      0.99462334	      0.30945053	    -16.90440474	      6.24223277	     -0.97540494	    -10.20301941	      5.35367488	      0.10285554	      9.69038484	     20.80847351	    -12.31542173	    -15.27687430	     -1.85171294	     -0.90295455	     -7.66462259	     -2.29257049	    -13.13604438	      8.69386439	     12.61825604
      1.15833333	      0.73534728	     -8.41292028	     -9.88397839	     -0.09836992	      0.99469936	      0.30943301	    -17.00262636	      5.89198560	     -0.90028474	    -10.69112176	      5.09689154	      0.24723318	      9.74368198	     20.65192951	    -12.16483083	    -15.22090587	     -2.31466150	     -1.46907937	     -8.19036214	     -2.26696598	    -13.14929059	      8.38152595	     12.81636449
      1.16250000	      0.79108042	     -8.24081268	    -10.04644930	     -0.09243536	      0.99482086	      0.30935597	    -17.08014583	      5.53962313	     -0.85409831	    -11.21562146	      4.80560766	      0.40163996	      9.82333251	     20.49170036	    -12.00190207	    -15.17270937	     -2.76418504	     -2.06845010	     -8.71026477	     -2.22894804	    -13.16376828	      8.07056792	     12.99621684
      1.16666667	      0.83424804	     -8.06409460	    -10.18892147	     -0.08648760	      0.99496414	      0.30919556	    -17.11456558	      5.18529612	     -0.84451280	    -11.78467221	      4.48064415	      0.56487387	      9.93933342	     20.34569044	    -11.82422826	    -15.11542899	     -3.19863152	     -2.69432195	     -9.23803177	     -2.17501218	    -13.16114245	      7.76737571	     13.16087452
      1.17083333	      0.86653704	     -7.87915954	    -10.31327370	     -0.08050858	      0.99512917	      0.30899654	    -17.11085106	      4.82812833	     -0.86471133	    -12.39411119	      4.11923992	      0.72233516	     10.07782214	     20.21396510	    -11.63365645	    -15.07118934	     -3.62834273	     -3.32722831	     -9.75520538	     -2.11426900	    -13.13440199	      7.45757539	     13.28788873
      1.17500000	      0.91589443	     -7.70448929	    -10.36169493	     -0.07453286	      0.99532524	      0.30857068	    -17.10038120	      4.48355237	     -0.99125243	    -13.03835358	      3.72312835	      0.98757671	     10.37915199	     20.08569916	    -11.41552358	    -14.93547871	     -4.05274284	     -3.99065026	    -10.33179224	     -1.98284296	    -13.13000771	      7.18606486	     13.42054970
